<?xml version="1.0" encoding="UTF-8"?>
<svg id="Layer_8" data-name="Layer 8" xmlns="http://www.w3.org/2000/svg" viewBox="0 0 500 500">
  <path d="M250,0l-.87,1.21L10.03,330.06c-.31.26-.79,1.1-.99,1.5-.04.07-.07.15-.11.23l-.04.11-.07.19c-.65,1.95-.55,6.26,4.64,18.72,3.3,7.93,8.27,18.24,14.77,30.64,11.06,21.08,22.88,41.19,23,41.39l.65,1.1,28.89-24.69c15.92,20.11,28.98,38.1,31.78,42,0,.02.03.03.03.04l.04.06c.31.42.47.66.49.68l1.1-.95.23-.15s.08-.04.25-.21l.22-.23s-.02.05.17-.16c0-.03.31-.19.3-.22l58.92-55.46c6.65,8.82,14.05,19.13,22.3,31.18,27.81,40.63,52.22,82.21,52.46,82.63l.93,1.55.93-1.55c.24-.42,24.66-41.99,52.46-82.63,8.25-12.06,15.65-22.37,22.3-31.18l59.67,55.76s.04.02.04.05c0,0,.06.03.05.04l.08.08c.12.14.38.42.38.43h0l.98,1.03s.18-.26.49-.68l.04-.06s0,.01.03-.04c2.81-3.89,15.86-21.89,31.78-42l28.89,24.69.65-1.1c.12-.2,11.95-20.31,23-41.39,6.5-12.4,11.47-22.7,14.77-30.64,5.18-12.47,5.29-16.78,4.64-18.72l-.04-.16-.07-.14c-.03-.08-.07-.16-.11-.23-.2-.4-.26-.42-.67-1.07L250.87,1.21l-.87-1.21M379.59,182.02c-.73-.06-1.68-.11-2.72-.11-2.3,0-5.46-4.74-8.61-3.88s-5.89,2.87-7.03,5.31c-1.15,2.44-5.6.72-5.89,3.45-.29,2.73-4.16,4.16-5.17,6.75-1,2.58-2.44,1.15-4.59,2.44-2.15,1.29-2.73-2.58-8.04,1.72-3.54,2.87-6.5,3.17-8.09,3.05L254.09,9.3l125.5,172.72ZM250,4.78l42.7,108.5c-.04,1.64-.17,4-.55,5.43-.64,2.34-1.92,8.1-1.64,9.59s1.57,7.32,3.21,9.24c1.63,1.92.57,3.2.57,4.12s1.92,7.03,1.92,7.03c0,0,2.98,2.91,3.41,3.55.43.64,1.56,2.06,1.35,2.56-.21.5-3.2,2.06-3.27,3.55-.07,1.49,1.63,1.85,3.41,1.78s1.14,1.35,4.9,2.84c3,1.19,4.64.03,5.98-.7l9.57,24.33c-.77-.17-1.7-.34-2.62-.41-2.16-.17-5.62,4.94-6.48,6.02-.85,1.08,1.31,6.7,2.39,8.12,1.08,1.42-.06,2.95-.23,3.81-.17.85-3.69,1.19-5.28,2.05s-3.75,4.15-5.4,5.91c-1.65,1.76,1.31,3.3,2.44,4.66s8.41-.06,9.2,1.14,4.37,1.87,4.6,2.16.8,2.61.45,4.03-.97,2.95-1.31,4.72-3.58,6.36-4.15,7.33-7.61,5.8-9.72,7.1c-2.1,1.31-3.81,1.53-5.4,2.95s-3.35-1.08-5.4-1.99-3.64,1.02-6.48.11-1.82-6.25-2.1-7.73c-.28-1.48-2.84-.85-4.6-1.08-1.76-.23-2.67-3.81-2.78-6.48s-.85-2.22-1.87-3.58,3.12-8.58,4.37-10.11c1.25-1.53.85-5.74.4-6.31s-4.03-.23-6.65,1.59-3.24,5.4-3.98,7.44c-.74,2.05-4.6,2.44-6.48,2.95-1.87.51-4.32,3.98-7.39,3.47-3.07-.51-12.39-1.53-13.12-1.02s-6.65,5.06-9.26,3.86-7.22-.28-9.37.17c-2.16.45-3.24-.85-4.83-1.76s-5.57,1.08-5.57,1.08c0,0-3.52-1.19-5-1.76s-.68-.11-3.35-.74-2.67-1.59-.91-2.05,1.08-2.39-.45-3.12-4.6-4.37-8.12-5.17c-3.52-.8-5.8,1.42-6.08,2.1s1.65,3.07,1.59,3.98.74,1.08,1.7,1.93-3.69,4.55-4.03,4.49-1.42.51-1.65,1.65,1.59,2.78,1.99,3.35,1.87.97,3.41,1.7,1.53,1.36,1.48,2.44-2.1.17-2.73.4-1.42.11-1.48-1.02-4.72-4.89-5.23-5.23-3.92-3.47-5-5.85c-1.08-2.39-4.37-2.73-5.17-3.58s1.02-2.56,3.47-2.44,2.39-2.95,1.99-5.8c-.4-2.84-1.31-8.35-1.25-10.57.05-1.81-4.23-3.8-5.8-4.47L250,4.78ZM34.71,299.98c1.24.65,3.26,1.54,4.74,1.42,2.28-.19,2.57-4.56,2.76-3.33s4.18,5.89,4.37,6.94c.19,1.04.57,4.47.57,5.52s.48,1.71,1.05,3.14c.57,1.43-2.47-.57-4.09-1.33-1.62-.76-5.13-1.52-7.03-2.76-1.37-.89-4.73-2.88-6.49-3.91l4.13-5.68ZM81.92,397.24c-34.6-43.64-57.78-66.26-68.98-67.3l14.03-19.32c1.84.64,4.37,1.6,4.96,2.19.95.95,3.99,2.28,5.42,3.14s7.98,5.42,9.12,5.89,5.89,1.81,7.13,1.71c1.24-.1,1.62-2.47,2.19-4.85.57-2.38-2.09-6.75-1.52-6.84.57-.1,4.85,3.04,5.51,4.09s5.89,3.42,7.6,4.66c1.71,1.24,0,2.47,0,2.95s2.38,3.71,3.71,4.18c1.33.48,1.71-1.62,2.19-2.69.48-1.07,3.33.5,4.47.12,1.14-.38,3.52.19,4.66,1.05s-.1,3.33-.19,3.8c-.1.48,1.71,1.71,2.57,2.59.86.88-.19,1.3-1.52,2.3-1.33.99-1.62-.8-1.71-2.3-.1-1.49-.67-2.4-1.81-3.35s-3.71-.48-4.66,0,.1,6.08,1.05,7.13c.95,1.05,2.09,3.61,2.47,6.08.38,2.47,4.37,7.79,5.61,10.08,1.24,2.28,2.85,5.89,3.71,6.08.86.19,8.93,6.27,9.7,6.94.76.67,6.84,5.13,9.12,5.32,1.69.14,3.36-.76,4.11-1.24-.3,5.7-.44,12.09-.44,19.19,0,19.91,1.25,39.89,1.84,48.33-5-6.87-16.65-22.67-30.33-39.93ZM115.63,340.37c-.66,1.55-1.26,3.37-1.79,5.48-.02.01-.04.03-.06.04-1.12.71-3.61,2.95-3.9,4.66s-2.95.76-4.56-.48c-1.62-1.24-2.76-1.14-3.9-1.43s-1.9-2.57-1.9-2.57c0,0-1.52-3.71-1.43-5.38.1-1.68,2.19-1.27,3.71-2.89,1.52-1.62-.48-3.42.19-5.2.67-1.78,2.38,3.68,3.14,5.49.76,1.81,5.23.29,6.14.09.79-.16,2.95,1.31,4.48,1.83l-.13.34h.01ZM117.78,340.73l.02-.05c.34-.73.67-1.36,1.01-1.89l-1.03,1.93ZM119.29,211.2c-.1-1.43-.57-5.99-1.24-7.03-.67-1.05-2.85-3.9-2.95-6.56-.06-1.75-1.45-3.8-2.39-4.99L245.91,9.3l-53.8,136.7c-1.28.26-4.51.94-6,1.34-1.89.5-5.85,1.7-7.43,2.01-1.57.31-5.35.57-6.48,1.45-1.13.88-2.14,4.22-.82,5.29,1.32,1.07,6.92,7.93,7.93,9.25s.25,5.92-.44,7.55c-.46,1.08-.12,4.27.16,6.34l-20.93,53.19c-.14-1.31-.22-3.16.15-4.67.67-2.66.48-2.95.57-4.75.1-1.81-.19-1.81-.19-3.04s3.8-5.61,3.9-6.08,0-3.52,0-4.66-1.05-4.28-2.38-6.18-4.94-2.47-6.75-3.8c-1.81-1.33-13.59-4.85-15.97-5.99s-13.21.1-13.88.67c-.67.57-.86,2.28-.48,3.8.38,1.52-.76,6.94-1.33,8.08-.57,1.14-.76,3.33-.67,4.37.1,1.05,3.52.48,4.56.76,1.05.29,2,2.57,1.68,3.61-.31,1.05-.26,5.32-.06,5.7.2.38-.2,3.99-.01,5.7.19,1.71-2.19,1.33-2.19,0s-.29-7.51-.57-9.89c-.29-2.38-5.13-3.42-5.23-4.85ZM165.84,218.61c.05.75.11,2.44-.14,3.82-.34,1.82,1.19,3.49.91,3.99-.28.5-6.13,16.25-6.58,16.91-.44.66-3.37,11.38-5.53,11.77-1.33.24-2.08-.71-2.45-1.46l13.78-35.03ZM152.36,240.19c.5-1.01,2.97-3.35,4.57-4.82l-4.36,11.07c-.27-2.11-.73-5.22-.22-6.25ZM143.95,268.36l-3.98,10.11c-1.44-1.87-4.44-5.35-5.19-6.25-.95-1.14.57-2.28,1.9-2.95,1.33-.67,2.95-1.33,3.99-.57.66.48,2.21.04,3.28-.35ZM377.92,333.95c-7.41-.8-18.44,7.18-33.72,24.42-11.89,13.41-26.22,32.33-42.59,56.26-24.79,36.23-46.89,73.2-51.61,81.18-4.72-7.97-26.82-44.95-51.61-81.18-16.37-23.92-30.7-42.85-42.59-56.26-15.28-17.23-26.32-25.22-33.72-24.42-.64.07-1.25.25-1.84.55l26.77-68.01c.43.79,1.13,2.12,1.6,3.2.72,1.66-3.58,7.26-3.17,12.52l2.69,5.46c.5.83,3.52,4.89,3.29,5.5-.22.61.77,4.53,1.11,5.86s.06,4.2,1.93,6.19c1.88,1.99,4.31-1.16,6.3-1.77,1.99-.61,1.71,4.48,3.04,5.69,1.33,1.22,2.71-1.55,4.48-1.71,1.77-.17,1.11,4.81,2.21,5.25,1.11.44,4.81,5.14,4.97,6.91.17,1.77,2.38,1.82,5.19,2.65,2.82.83,6.69,10.61,6.24,11.94-.44,1.33,2.43,4.81,2.27,6.12-.17,1.31-.17,5.26,2.16,5.32,2.32.06,3.65,8.95,4.31,10.61.66,1.66,11.77,8.84,13.04,9.34s8.23,14.53,9.45,17.08,6.52,11.99,6.41,12.82c-.11.83,2.87,4.26,3.32,5.36.44,1.11,5.36,2.76,6.52,3.15s9.62,9.01,11.6,9.95c1.99.94,3.04-2.49,4.2-3.26,1.16-.77,1.6,1.55,3.32,1.6s2.93,3.04,4.48,4.26c1.55,1.22,4.86-.33,6.41-1.05,1.55-.72.83-2.32,1.38-3.76.55-1.44,2.6,1.49,3.48,2.32.88.83,4.09,1.71,4.64,0,.55-1.71,8.34-4.48,9.23-4.75.88-.28,1.49-3.65.77-3.59-.72.06-3.59-2.27-3.7-2.65-.11-.39,4.2-.11,5.14-.11s6.47,2.38,6.47,2.38c0,0,2.76.11,3.43-.39.66-.5-.44-4.48-1.49-3.92-1.05.55-7.57-2.1-8.68-2.87-1.11-.77-6.35-.28-7.4-1.11-1.05-.83-5.8-3.21-6.3-3.43-.5-.22-5.19-2.87-6.19-5.03-.99-2.16-1.82-3.48-3.09-2.93-1.27.55-1.93-1.77-2.04-3.87-.11-2.1-3.26-5.97-3.37-7.74-.11-1.77.22-4.03-.06-4.81-.28-.77-1.82-4.59-1.6-6.08s2.65-6.24,3.15-6.35c.5-.11,1.6-.61,2.16-1.44.55-.83,4.14-3.59,5.19-4.64s2.71-1.6,3.21-3.15c.5-1.55.22-3.81.88-5.03.66-1.22,2.65-3.7,2.93-4.53s1.16-3.81,1.55-3.48,1.16,3.26,2.21,3.81c1.05.55,8.45-4.81,9.78-5.3s1.88.5,3.26.39c1.38-.11,6.52-2.43,6.8-2.71s1.27-.22,1.99.33c.72.55,5.03-5.64,6.13-6.41,1.11-.77,4.48-2.6,4.81-4.86.33-2.27,3.15-5.03,3.81-5.31.66-.28,4.42-3.32,4.19-6.47-.23-3.15,4.04-10.83,4.21-11,.17-.17,4.14-8.07,4.53-9.45.39-1.38,4.48-8.79,5.19-9.28.72-.5,2.76-7.29,2.21-8.73-.55-1.44-2.43-.22-3.76.44-1.33.66-4.26,4.97-4.2,5.31.06.33-2.76,5.58-3.92,5.97-1.16.39,1.38-3.54,1.38-4.7s3.54-8.95,3.69-9.39c.15-.44,5.71-12.71,6.04-13.54.33-.83,1.6-4.37,3.48-8.07,1.88-3.7.72-4.81.28-6.35s-2.98-8.62-3.26-10.67c-.28-2.04-.66-5.86-.66-6.85s-5.14-4.86-5.8-7.68c-.51-2.18,1.99-5.59,3.14-7.02l50.19,127.53c-.59-.3-1.2-.48-1.84-.55ZM418.08,397.24c-13.68,17.26-25.33,33.06-30.33,39.93.6-8.45,1.84-28.42,1.84-48.33,0-24.22-1.72-40.27-5.22-48.47h.01s-7.79-19.8-7.79-19.8c1.01-1.41,2.86-4.02,4.44-6.28,2.3-3.3,7.9-5.6,10.05-7.18q2.15-1.58,3.01-4.02c.86-2.44,4.88-1.15,6.46-2.01s0-8.9,0-8.9c0,0,1.44-5.46,3.59-7.47s.86-7.18.12-10.34c-.74-3.16,2.03-4.16,2.89-7.32.86-3.16-1-3.59-2.32-6.17-1.32-2.58-.12-4.88,1.32-8.04,1.44-3.16-1-2.44-1.29-5.46-.29-3.01,1.72-4.02,2.44-6.89.72-2.87-.86-4.45,1.29-5.17,1.62-.54,4-4.47,5.08-6.38l73.38,101c-11.19,1.05-34.38,23.67-68.98,67.3Z"/>
  <path d="M287.81,186.38c-.78-.53-3.62,1.17-3.2,2.16.43.99-.28,7.1-.36,7.89s1.49,5.9,1.49,5.9c0,0,2.84,4.26,3.34,5.75s1.71,1.49,2.91,1.78c1.21.28,3.41.36,4.55-1.42,1.14-1.78-2.95-3.4-4.55-4.55-.79-.57-.92-4.19-1.07-5.26s-.99-8.45-.99-8.45c0,0-1.35-3.27-2.13-3.79Z"/>
  <path d="M278.58,173.9c-.14,1.28,1.92,3.34,2.77,4.61.85,1.27-.5.86-.64,1.85s4.97.43,6.54,0c1.56-.43.43-3.14.99-4.26,1.42-2.84-.14-3.34-.5-3.91s-4.33-4.33-5.61-4.94c-1.28-.61-.92-2.8-1.14-4.08-.21-1.28-.71-1.35-2.06-1.35s-.99,1.85-1.49,2.98.28,3.98,1.13,5.47c.85,1.49.15,2.34,0,3.62Z"/>
  <path d="M94,382.94s-1.94-.27-2.7-1.64c-.76-1.37.23-3.41.23-5.46s-5.31-.76-6.39-1.29-.29-2.73-.74-4.02c-.46-1.29-1.21-.3-3.26-.46-2.05-.15-1.75-3.34-2.96-3.64-1.21-.3-3.19,3.95-2.5,5.39.68,1.44,1.97,5.24,1.97,5.24,0,0,2.2,4.63,3.49,4.63s3.26,3.34,4.25,4.5c.99,1.16,5.16,5.36,6.53,6.2,1.37.83,3.11-3.11,2.81-4.78s-.15-3.11-.72-4.66Z"/>
</svg>